<mxfile host="app.diagrams.net" agent="Mozilla/5.0 (Windows NT 10.0; Win64; x64) AppleWebKit/537.36 (KHTML, like Gecko) Chrome/131.0.0.0 Safari/537.36 Edg/131.0.0.0" version="24.8.6">
  <diagram name="第 1 页" id="CPCK61G9Xob5o3EQFY90">
    <mxGraphModel dx="1554" dy="1988" grid="1" gridSize="10" guides="1" tooltips="1" connect="1" arrows="1" fold="1" page="1" pageScale="1" pageWidth="827" pageHeight="1169" background="#FFFFFF" math="0" shadow="0">
      <root>
        <mxCell id="0" />
        <mxCell id="1" parent="0" />
        <mxCell id="o9eA9KWCmFyE80jL0oKZ-1" value="User&lt;div&gt;&lt;br&gt;&lt;/div&gt;" style="shape=umlActor;verticalLabelPosition=bottom;verticalAlign=top;html=1;" parent="1" vertex="1">
          <mxGeometry x="120" y="300" width="30" height="60" as="geometry" />
        </mxCell>
        <mxCell id="o9eA9KWCmFyE80jL0oKZ-2" value="&lt;div&gt;Admin&lt;/div&gt;" style="shape=umlActor;verticalLabelPosition=bottom;verticalAlign=top;html=1;" parent="1" vertex="1">
          <mxGeometry x="730" y="280" width="30" height="60" as="geometry" />
        </mxCell>
        <mxCell id="w4V-hlEMPskwBuOOOHCx-42" value="" style="rounded=0;whiteSpace=wrap;html=1;" vertex="1" parent="1">
          <mxGeometry x="330" y="-60" width="200" height="830" as="geometry" />
        </mxCell>
        <mxCell id="w4V-hlEMPskwBuOOOHCx-43" value="" style="rounded=0;whiteSpace=wrap;html=1;" vertex="1" parent="1">
          <mxGeometry x="370" y="10" width="120" height="120" as="geometry" />
        </mxCell>
        <mxCell id="w4V-hlEMPskwBuOOOHCx-44" value="" style="rounded=0;whiteSpace=wrap;html=1;" vertex="1" parent="1">
          <mxGeometry x="370" y="150" width="120" height="150" as="geometry" />
        </mxCell>
        <mxCell id="w4V-hlEMPskwBuOOOHCx-45" value="" style="rounded=0;whiteSpace=wrap;html=1;" vertex="1" parent="1">
          <mxGeometry x="370" y="330" width="120" height="160" as="geometry" />
        </mxCell>
        <mxCell id="w4V-hlEMPskwBuOOOHCx-46" value="" style="rounded=0;whiteSpace=wrap;html=1;" vertex="1" parent="1">
          <mxGeometry x="372.5" y="500" width="120" height="150" as="geometry" />
        </mxCell>
        <mxCell id="w4V-hlEMPskwBuOOOHCx-49" value="" style="rounded=0;whiteSpace=wrap;html=1;" vertex="1" parent="1">
          <mxGeometry x="377.5" y="670" width="120" height="90" as="geometry" />
        </mxCell>
        <mxCell id="w4V-hlEMPskwBuOOOHCx-50" value="内容管理" style="text;align=center;fontStyle=1;verticalAlign=middle;spacingLeft=3;spacingRight=3;strokeColor=none;rotatable=0;points=[[0,0.5],[1,0.5]];portConstraint=eastwest;html=1;" vertex="1" parent="1">
          <mxGeometry x="390" y="10" width="80" height="26" as="geometry" />
        </mxCell>
        <mxCell id="w4V-hlEMPskwBuOOOHCx-51" value="资源管理" style="text;align=center;fontStyle=1;verticalAlign=middle;spacingLeft=3;spacingRight=3;strokeColor=none;rotatable=0;points=[[0,0.5],[1,0.5]];portConstraint=eastwest;html=1;" vertex="1" parent="1">
          <mxGeometry x="390" y="150" width="80" height="26" as="geometry" />
        </mxCell>
        <mxCell id="w4V-hlEMPskwBuOOOHCx-52" value="社区管理" style="text;align=center;fontStyle=1;verticalAlign=middle;spacingLeft=3;spacingRight=3;strokeColor=none;rotatable=0;points=[[0,0.5],[1,0.5]];portConstraint=eastwest;html=1;" vertex="1" parent="1">
          <mxGeometry x="387.5" y="330" width="80" height="26" as="geometry" />
        </mxCell>
        <mxCell id="w4V-hlEMPskwBuOOOHCx-54" value="讨论与问答" style="text;align=center;fontStyle=1;verticalAlign=middle;spacingLeft=3;spacingRight=3;strokeColor=none;rotatable=0;points=[[0,0.5],[1,0.5]];portConstraint=eastwest;html=1;" vertex="1" parent="1">
          <mxGeometry x="387.5" y="500" width="80" height="26" as="geometry" />
        </mxCell>
        <mxCell id="w4V-hlEMPskwBuOOOHCx-55" value="推荐系统" style="text;align=center;fontStyle=1;verticalAlign=middle;spacingLeft=3;spacingRight=3;strokeColor=none;rotatable=0;points=[[0,0.5],[1,0.5]];portConstraint=eastwest;html=1;" vertex="1" parent="1">
          <mxGeometry x="392.5" y="670" width="80" height="26" as="geometry" />
        </mxCell>
        <mxCell id="w4V-hlEMPskwBuOOOHCx-56" value="文章审核" style="ellipse;whiteSpace=wrap;html=1;" vertex="1" parent="1">
          <mxGeometry x="385" y="36" width="90" height="30" as="geometry" />
        </mxCell>
        <mxCell id="w4V-hlEMPskwBuOOOHCx-57" value="文章发布" style="ellipse;whiteSpace=wrap;html=1;" vertex="1" parent="1">
          <mxGeometry x="385" y="66" width="90" height="30" as="geometry" />
        </mxCell>
        <mxCell id="w4V-hlEMPskwBuOOOHCx-59" value="标签管理" style="ellipse;whiteSpace=wrap;html=1;" vertex="1" parent="1">
          <mxGeometry x="385" y="96" width="90" height="30" as="geometry" />
        </mxCell>
        <mxCell id="w4V-hlEMPskwBuOOOHCx-60" value="&lt;font style=&quot;font-size: 16px;&quot;&gt;程序员博客网站&lt;/font&gt;" style="text;align=center;fontStyle=1;verticalAlign=middle;spacingLeft=3;spacingRight=3;strokeColor=none;rotatable=0;points=[[0,0.5],[1,0.5]];portConstraint=eastwest;html=1;" vertex="1" parent="1">
          <mxGeometry x="377.5" y="-50" width="105" height="40" as="geometry" />
        </mxCell>
        <mxCell id="w4V-hlEMPskwBuOOOHCx-61" value="资源审核" style="ellipse;whiteSpace=wrap;html=1;" vertex="1" parent="1">
          <mxGeometry x="385" y="176" width="90" height="30" as="geometry" />
        </mxCell>
        <mxCell id="w4V-hlEMPskwBuOOOHCx-62" value="资源下载" style="ellipse;whiteSpace=wrap;html=1;" vertex="1" parent="1">
          <mxGeometry x="385" y="206" width="90" height="30" as="geometry" />
        </mxCell>
        <mxCell id="w4V-hlEMPskwBuOOOHCx-63" value="资源上传" style="ellipse;whiteSpace=wrap;html=1;" vertex="1" parent="1">
          <mxGeometry x="385" y="236" width="90" height="30" as="geometry" />
        </mxCell>
        <mxCell id="w4V-hlEMPskwBuOOOHCx-64" value="资源分类" style="ellipse;whiteSpace=wrap;html=1;" vertex="1" parent="1">
          <mxGeometry x="385" y="266" width="90" height="30" as="geometry" />
        </mxCell>
        <mxCell id="w4V-hlEMPskwBuOOOHCx-65" value="推荐内容" style="ellipse;whiteSpace=wrap;html=1;" vertex="1" parent="1">
          <mxGeometry x="392.5" y="696" width="90" height="30" as="geometry" />
        </mxCell>
        <mxCell id="w4V-hlEMPskwBuOOOHCx-66" value="个性化推荐" style="ellipse;whiteSpace=wrap;html=1;" vertex="1" parent="1">
          <mxGeometry x="392.5" y="726" width="90" height="30" as="geometry" />
        </mxCell>
        <mxCell id="w4V-hlEMPskwBuOOOHCx-67" style="edgeStyle=orthogonalEdgeStyle;rounded=0;orthogonalLoop=1;jettySize=auto;html=1;exitX=0.5;exitY=1;exitDx=0;exitDy=0;" edge="1" parent="1" source="w4V-hlEMPskwBuOOOHCx-42" target="w4V-hlEMPskwBuOOOHCx-42">
          <mxGeometry relative="1" as="geometry" />
        </mxCell>
        <mxCell id="w4V-hlEMPskwBuOOOHCx-68" value="积分系统" style="ellipse;whiteSpace=wrap;html=1;" vertex="1" parent="1">
          <mxGeometry x="382.5" y="363" width="90" height="30" as="geometry" />
        </mxCell>
        <mxCell id="w4V-hlEMPskwBuOOOHCx-69" value="用户注册" style="ellipse;whiteSpace=wrap;html=1;" vertex="1" parent="1">
          <mxGeometry x="385" y="393" width="90" height="30" as="geometry" />
        </mxCell>
        <mxCell id="w4V-hlEMPskwBuOOOHCx-70" value="用户取关" style="ellipse;whiteSpace=wrap;html=1;" vertex="1" parent="1">
          <mxGeometry x="385" y="423" width="90" height="30" as="geometry" />
        </mxCell>
        <mxCell id="w4V-hlEMPskwBuOOOHCx-72" value="用户关注" style="ellipse;whiteSpace=wrap;html=1;" vertex="1" parent="1">
          <mxGeometry x="387.5" y="453" width="90" height="30" as="geometry" />
        </mxCell>
        <mxCell id="w4V-hlEMPskwBuOOOHCx-73" value="回答" style="ellipse;whiteSpace=wrap;html=1;" vertex="1" parent="1">
          <mxGeometry x="387.5" y="526" width="90" height="30" as="geometry" />
        </mxCell>
        <mxCell id="w4V-hlEMPskwBuOOOHCx-74" value="问题创建" style="ellipse;whiteSpace=wrap;html=1;" vertex="1" parent="1">
          <mxGeometry x="387.5" y="556" width="90" height="30" as="geometry" />
        </mxCell>
        <mxCell id="w4V-hlEMPskwBuOOOHCx-75" value="标签" style="ellipse;whiteSpace=wrap;html=1;" vertex="1" parent="1">
          <mxGeometry x="387.5" y="586" width="90" height="30" as="geometry" />
        </mxCell>
        <mxCell id="w4V-hlEMPskwBuOOOHCx-76" value="评论" style="ellipse;whiteSpace=wrap;html=1;" vertex="1" parent="1">
          <mxGeometry x="390" y="616" width="90" height="30" as="geometry" />
        </mxCell>
        <mxCell id="w4V-hlEMPskwBuOOOHCx-78" value="" style="endArrow=none;html=1;rounded=0;exitX=0.522;exitY=0.347;exitDx=0;exitDy=0;exitPerimeter=0;entryX=0;entryY=0.5;entryDx=0;entryDy=0;" edge="1" parent="1" source="o9eA9KWCmFyE80jL0oKZ-1" target="w4V-hlEMPskwBuOOOHCx-59">
          <mxGeometry width="50" height="50" relative="1" as="geometry">
            <mxPoint x="430" y="260" as="sourcePoint" />
            <mxPoint x="480" y="210" as="targetPoint" />
          </mxGeometry>
        </mxCell>
        <mxCell id="w4V-hlEMPskwBuOOOHCx-79" value="" style="endArrow=none;html=1;rounded=0;exitX=0.567;exitY=0.358;exitDx=0;exitDy=0;exitPerimeter=0;entryX=0;entryY=0.5;entryDx=0;entryDy=0;" edge="1" parent="1" source="o9eA9KWCmFyE80jL0oKZ-1" target="w4V-hlEMPskwBuOOOHCx-62">
          <mxGeometry width="50" height="50" relative="1" as="geometry">
            <mxPoint x="146" y="331" as="sourcePoint" />
            <mxPoint x="395" y="121" as="targetPoint" />
          </mxGeometry>
        </mxCell>
        <mxCell id="w4V-hlEMPskwBuOOOHCx-80" value="" style="endArrow=none;html=1;rounded=0;exitX=0.567;exitY=0.381;exitDx=0;exitDy=0;exitPerimeter=0;entryX=0;entryY=0.5;entryDx=0;entryDy=0;" edge="1" parent="1" source="o9eA9KWCmFyE80jL0oKZ-1" target="w4V-hlEMPskwBuOOOHCx-63">
          <mxGeometry width="50" height="50" relative="1" as="geometry">
            <mxPoint x="156" y="341" as="sourcePoint" />
            <mxPoint x="405" y="131" as="targetPoint" />
          </mxGeometry>
        </mxCell>
        <mxCell id="w4V-hlEMPskwBuOOOHCx-81" value="" style="endArrow=none;html=1;rounded=0;exitX=0.5;exitY=0.5;exitDx=0;exitDy=0;exitPerimeter=0;entryX=0;entryY=0.5;entryDx=0;entryDy=0;" edge="1" parent="1" target="w4V-hlEMPskwBuOOOHCx-64">
          <mxGeometry width="50" height="50" relative="1" as="geometry">
            <mxPoint x="135" y="319" as="sourcePoint" />
            <mxPoint x="385" y="270" as="targetPoint" />
          </mxGeometry>
        </mxCell>
        <mxCell id="w4V-hlEMPskwBuOOOHCx-82" value="" style="endArrow=none;html=1;rounded=0;entryX=0;entryY=0.5;entryDx=0;entryDy=0;exitX=0.5;exitY=0.5;exitDx=0;exitDy=0;exitPerimeter=0;" edge="1" parent="1" source="o9eA9KWCmFyE80jL0oKZ-1" target="w4V-hlEMPskwBuOOOHCx-68">
          <mxGeometry width="50" height="50" relative="1" as="geometry">
            <mxPoint x="140" y="320" as="sourcePoint" />
            <mxPoint x="190" y="270" as="targetPoint" />
          </mxGeometry>
        </mxCell>
        <mxCell id="w4V-hlEMPskwBuOOOHCx-83" value="" style="endArrow=none;html=1;rounded=0;exitX=0.5;exitY=0.5;exitDx=0;exitDy=0;exitPerimeter=0;entryX=0;entryY=0.5;entryDx=0;entryDy=0;" edge="1" parent="1" source="o9eA9KWCmFyE80jL0oKZ-1" target="w4V-hlEMPskwBuOOOHCx-69">
          <mxGeometry width="50" height="50" relative="1" as="geometry">
            <mxPoint x="176" y="361" as="sourcePoint" />
            <mxPoint x="425" y="151" as="targetPoint" />
          </mxGeometry>
        </mxCell>
        <mxCell id="w4V-hlEMPskwBuOOOHCx-84" value="" style="endArrow=none;html=1;rounded=0;entryX=0;entryY=0.5;entryDx=0;entryDy=0;exitX=0.5;exitY=0.5;exitDx=0;exitDy=0;exitPerimeter=0;" edge="1" parent="1" source="o9eA9KWCmFyE80jL0oKZ-1" target="w4V-hlEMPskwBuOOOHCx-70">
          <mxGeometry width="50" height="50" relative="1" as="geometry">
            <mxPoint x="140" y="330" as="sourcePoint" />
            <mxPoint x="435" y="161" as="targetPoint" />
          </mxGeometry>
        </mxCell>
        <mxCell id="w4V-hlEMPskwBuOOOHCx-85" value="" style="endArrow=none;html=1;rounded=0;exitX=0.5;exitY=0.5;exitDx=0;exitDy=0;exitPerimeter=0;entryX=0;entryY=0.5;entryDx=0;entryDy=0;" edge="1" parent="1" source="o9eA9KWCmFyE80jL0oKZ-1" target="w4V-hlEMPskwBuOOOHCx-72">
          <mxGeometry width="50" height="50" relative="1" as="geometry">
            <mxPoint x="196" y="381" as="sourcePoint" />
            <mxPoint x="445" y="171" as="targetPoint" />
          </mxGeometry>
        </mxCell>
        <mxCell id="w4V-hlEMPskwBuOOOHCx-86" value="" style="endArrow=none;html=1;rounded=0;exitX=0.522;exitY=0.603;exitDx=0;exitDy=0;exitPerimeter=0;entryX=0;entryY=0.5;entryDx=0;entryDy=0;" edge="1" parent="1" source="o9eA9KWCmFyE80jL0oKZ-1" target="w4V-hlEMPskwBuOOOHCx-73">
          <mxGeometry width="50" height="50" relative="1" as="geometry">
            <mxPoint x="206" y="391" as="sourcePoint" />
            <mxPoint x="455" y="181" as="targetPoint" />
          </mxGeometry>
        </mxCell>
        <mxCell id="w4V-hlEMPskwBuOOOHCx-87" value="" style="endArrow=none;html=1;rounded=0;exitX=0.5;exitY=0.5;exitDx=0;exitDy=0;exitPerimeter=0;entryX=0;entryY=0.5;entryDx=0;entryDy=0;" edge="1" parent="1" source="o9eA9KWCmFyE80jL0oKZ-1" target="w4V-hlEMPskwBuOOOHCx-74">
          <mxGeometry width="50" height="50" relative="1" as="geometry">
            <mxPoint x="216" y="401" as="sourcePoint" />
            <mxPoint x="465" y="191" as="targetPoint" />
          </mxGeometry>
        </mxCell>
        <mxCell id="w4V-hlEMPskwBuOOOHCx-88" value="" style="endArrow=none;html=1;rounded=0;exitX=0.5;exitY=0.5;exitDx=0;exitDy=0;exitPerimeter=0;entryX=0;entryY=0.5;entryDx=0;entryDy=0;" edge="1" parent="1" source="o9eA9KWCmFyE80jL0oKZ-1" target="w4V-hlEMPskwBuOOOHCx-75">
          <mxGeometry width="50" height="50" relative="1" as="geometry">
            <mxPoint x="145" y="340" as="sourcePoint" />
            <mxPoint x="398" y="581" as="targetPoint" />
          </mxGeometry>
        </mxCell>
        <mxCell id="w4V-hlEMPskwBuOOOHCx-89" value="" style="endArrow=none;html=1;rounded=0;exitX=1;exitY=1;exitDx=0;exitDy=0;exitPerimeter=0;entryX=0;entryY=0.5;entryDx=0;entryDy=0;" edge="1" parent="1" source="o9eA9KWCmFyE80jL0oKZ-1" target="w4V-hlEMPskwBuOOOHCx-76">
          <mxGeometry width="50" height="50" relative="1" as="geometry">
            <mxPoint x="155" y="350" as="sourcePoint" />
            <mxPoint x="408" y="591" as="targetPoint" />
          </mxGeometry>
        </mxCell>
        <mxCell id="w4V-hlEMPskwBuOOOHCx-90" value="" style="endArrow=none;html=1;rounded=0;exitX=1;exitY=1;exitDx=0;exitDy=0;exitPerimeter=0;entryX=0;entryY=0.5;entryDx=0;entryDy=0;" edge="1" parent="1" source="o9eA9KWCmFyE80jL0oKZ-1" target="w4V-hlEMPskwBuOOOHCx-65">
          <mxGeometry width="50" height="50" relative="1" as="geometry">
            <mxPoint x="165" y="360" as="sourcePoint" />
            <mxPoint x="418" y="601" as="targetPoint" />
          </mxGeometry>
        </mxCell>
        <mxCell id="w4V-hlEMPskwBuOOOHCx-91" value="" style="endArrow=none;html=1;rounded=0;exitX=0.322;exitY=0.803;exitDx=0;exitDy=0;exitPerimeter=0;entryX=0;entryY=0.5;entryDx=0;entryDy=0;" edge="1" parent="1" source="o9eA9KWCmFyE80jL0oKZ-1" target="w4V-hlEMPskwBuOOOHCx-66">
          <mxGeometry width="50" height="50" relative="1" as="geometry">
            <mxPoint x="175" y="370" as="sourcePoint" />
            <mxPoint x="428" y="611" as="targetPoint" />
          </mxGeometry>
        </mxCell>
        <mxCell id="w4V-hlEMPskwBuOOOHCx-92" value="" style="endArrow=none;html=1;rounded=0;exitX=1;exitY=0.5;exitDx=0;exitDy=0;entryX=0.5;entryY=0;entryDx=0;entryDy=0;entryPerimeter=0;" edge="1" parent="1" source="w4V-hlEMPskwBuOOOHCx-56" target="o9eA9KWCmFyE80jL0oKZ-2">
          <mxGeometry width="50" height="50" relative="1" as="geometry">
            <mxPoint x="507" y="310" as="sourcePoint" />
            <mxPoint x="760" y="551" as="targetPoint" />
          </mxGeometry>
        </mxCell>
        <mxCell id="w4V-hlEMPskwBuOOOHCx-94" value="" style="endArrow=none;html=1;rounded=0;exitX=1;exitY=0.5;exitDx=0;exitDy=0;entryX=0;entryY=0.3333333333333333;entryDx=0;entryDy=0;entryPerimeter=0;" edge="1" parent="1" source="w4V-hlEMPskwBuOOOHCx-61" target="o9eA9KWCmFyE80jL0oKZ-2">
          <mxGeometry width="50" height="50" relative="1" as="geometry">
            <mxPoint x="485" y="61" as="sourcePoint" />
            <mxPoint x="755" y="290" as="targetPoint" />
          </mxGeometry>
        </mxCell>
      </root>
    </mxGraphModel>
  </diagram>
</mxfile>
